<svg width="24" height="24" viewBox="0 0 24 24" fill="none" xmlns="http://www.w3.org/2000/svg">
<path d="M15.2944 22V14.7747H17.9873L18.3905 11.6481H15.2944V9.65192C15.2944 8.74669 15.5458 8.1298 16.8439 8.1298L18.4995 8.12908V5.33259C18.2132 5.29449 17.2304 5.20936 16.087 5.20936C13.6999 5.20936 12.0656 6.66644 12.0656 9.34227V11.6481H9.36584V14.7747H12.0656V22H4C2.89543 22 2 21.1046 2 20L2 4C2 2.89543 2.89543 2 4 2H20C21.1046 2 22 2.89543 22 4V20C22 21.1046 21.1046 22 20 22H15.2944Z" fill="#95A1BB"/>
</svg>
