<svg width="24" height="24" viewBox="0 0 24 24" fill="none" xmlns="http://www.w3.org/2000/svg">
<path fill-rule="evenodd" clip-rule="evenodd" d="M11.5 1C8.64838 1 8.29137 1.01225 7.17137 1.063C3.35812 1.238 1.23888 3.35375 1.06387 7.1705C1.01225 8.29137 1 8.64838 1 11.5C1 14.3516 1.01225 14.7095 1.063 15.8295C1.238 19.6427 3.35375 21.762 7.1705 21.937C8.29137 21.9878 8.64838 22 11.5 22C14.3516 22 14.7095 21.9878 15.8295 21.937C19.6392 21.762 21.7638 19.6462 21.9361 15.8295C21.9877 14.7095 22 14.3516 22 11.5C22 8.64838 21.9878 8.29137 21.937 7.17137C21.7655 3.36162 19.6471 1.23888 15.8304 1.06387C14.7095 1.01225 14.3516 1 11.5 1ZM11.5 2.89262C14.3035 2.89262 14.636 2.90312 15.7438 2.95387C18.5893 3.08337 19.9184 4.4335 20.0479 7.258C20.0986 8.36487 20.1082 8.69737 20.1082 11.5009C20.1082 14.3052 20.0977 14.6369 20.0479 15.7437C19.9175 18.5656 18.5919 19.9184 15.7438 20.0479C14.636 20.0986 14.3052 20.1091 11.5 20.1091C8.6965 20.1091 8.364 20.0986 7.25712 20.0479C4.40462 19.9175 3.0825 18.5613 2.953 15.7429C2.90225 14.636 2.89175 14.3044 2.89175 11.5C2.89175 8.6965 2.90312 8.36487 2.953 7.25712C3.08337 4.4335 4.409 3.0825 7.25712 2.953C8.36487 2.90312 8.6965 2.89262 11.5 2.89262ZM6.10825 11.5C6.10825 8.52238 8.52238 6.10825 11.5 6.10825C14.4776 6.10825 16.8918 8.52238 16.8918 11.5C16.8918 14.4785 14.4776 16.8926 11.5 16.8926C8.52238 16.8926 6.10825 14.4776 6.10825 11.5ZM11.5 15C9.56713 15 8 13.4338 8 11.5C8 9.56713 9.56713 8 11.5 8C13.4329 8 15 9.56713 15 11.5C15 13.4338 13.4329 15 11.5 15ZM15.8444 5.89563C15.8444 5.2 16.4087 4.63562 17.1052 4.63562C17.8009 4.63562 18.3644 5.2 18.3644 5.89563C18.3644 6.59125 17.8009 7.15562 17.1052 7.15562C16.4087 7.15562 15.8444 6.59125 15.8444 5.89563Z" fill="#95A1BB"/>
</svg>
